<?xml version="1.0" encoding="UTF-8" standalone="no"?><!DOCTYPE svg PUBLIC "-//W3C//DTD SVG 1.1//EN" "http://www.w3.org/Graphics/SVG/1.1/DTD/svg11.dtd"><svg width="100%" height="100%" viewBox="0 0 10430 10430" version="1.1" xmlns="http://www.w3.org/2000/svg" xmlns:xlink="http://www.w3.org/1999/xlink" xml:space="preserve" xmlns:serif="http://www.serif.com/" style="fill-rule:evenodd;clip-rule:evenodd;stroke-linejoin:round;stroke-miterlimit:1.5;"><g><path d="M-0,9560.49l4990.23,-9427.04c43.822,-82.055 130.319,-133.451 224.593,-133.451c94.274,0 180.771,51.396 224.593,133.451l4990.21,9427.04c-1616.77,613.42 -3379.52,869.135 -5214.81,869.135c-1835.29,0 -3598.05,-255.715 -5214.82,-869.135Z" style="fill:#0162a2;"/><path d="M781.563,9826.16l956.709,-1714.23l3326.82,-6284.69c29.214,-54.703 86.879,-88.967 149.729,-88.967c62.849,-0 120.514,34.264 149.728,88.967l3326.81,6284.69l950.363,1716.11c-1395.51,421.237 -2885.62,601.584 -4426.9,601.584c-1543.66,0 -3036.01,-180.905 -4433.26,-603.465Z" style="fill:#141414;"/><clipPath id="_clip1"><path d="M781.563,9826.16l956.709,-1714.23l3326.82,-6284.69c29.214,-54.703 86.879,-88.967 149.729,-88.967c62.849,-0 120.514,34.264 149.728,88.967l3326.81,6284.69l950.363,1716.11c-1395.51,421.237 -2885.62,601.584 -4426.9,601.584c-1543.66,0 -3036.01,-180.905 -4433.26,-603.465Z"/></clipPath><g clip-path="url(#_clip1)"><circle cx="5330.81" cy="30600.5" r="21448.9" style="fill:url(#_Linear2);"/><circle cx="5178.3" cy="30822.8" r="21448.9" style="fill:url(#_Linear3);"/><clipPath id="_clip4"><circle cx="5178.3" cy="30822.8" r="21448.9"/></clipPath><g clip-path="url(#_clip4)"><path d="M4158.55,9078.21c24.335,172.859 73.006,518.577 66.766,600.899c-3.762,49.636 -72.858,-94.001 -104.203,-106.967c-27.351,-11.314 -57.126,33.425 -83.866,29.171c-26.74,-4.254 -58.342,-54.695 -76.573,-54.695c-18.232,-0 -32.21,35.248 -32.818,54.695c-0.607,19.447 34.033,72.319 29.171,61.988c-4.862,-10.332 -40.717,-116.683 -58.341,-123.976c-17.624,-7.293 -32.817,57.734 -47.403,80.22c-12.303,18.967 -34.64,34.64 -40.11,54.695c-5.469,20.055 -7.292,56.518 7.293,65.634c14.586,9.116 60.773,-7.901 80.22,-10.939c12.246,-1.914 25.048,-12.122 36.463,-7.293c15.801,6.685 55.911,29.171 58.342,47.403c2.431,18.231 -25.525,52.872 -43.757,61.987c-18.231,9.116 -61.38,-16.408 -65.634,-7.292c-4.254,9.116 17.899,51.387 40.11,61.988c26.74,12.762 96.02,10.331 120.329,14.585c9.118,1.596 26.525,1.737 25.525,10.939c-3.039,27.955 -33.425,122.76 -43.756,156.793c-4.918,16.199 -33.425,43.756 -18.232,47.402c15.193,3.647 82.65,-23.701 109.39,-25.524c17.656,-1.204 38.248,2.366 51.049,14.585c13.37,12.762 22.486,48.01 29.171,61.988c3.518,7.356 5.469,21.27 10.939,21.878c5.469,0.608 13.387,-13.986 21.878,-18.232c17.016,-8.508 51.343,-33.733 80.219,-32.817c38.287,1.216 120.33,40.718 149.501,40.11c16.881,-0.352 32.412,-28.339 25.524,-43.756c-12.762,-28.563 -125.799,-99.059 -102.098,-127.622c23.702,-28.563 161.878,-50.833 244.305,-43.756c120.33,10.331 385.905,65.026 477.671,105.744c47.708,21.168 38.287,119.721 72.927,138.561c34.64,18.839 93.757,-5.502 134.915,-25.525c44.971,-21.878 116.683,-75.357 134.914,-105.744c13.843,-23.07 -5.146,-59.005 -25.524,-76.573c-35.248,-30.386 -126.406,-80.827 -185.963,-105.744c-54.391,-22.755 -115.468,-48.618 -171.379,-43.756c-55.91,4.862 -122.76,67.458 -164.085,72.927c-30.72,4.066 -61.988,-26.74 -83.866,-40.11c-17.661,-10.793 -50.441,-21.27 -47.402,-40.11c3.038,-18.839 40.109,-54.695 65.634,-72.926c25.524,-18.232 93.589,-23.702 87.512,-36.464c-6.077,-12.762 -97.236,-23.093 -123.976,-40.11c-20.224,-12.87 -36.463,-46.187 -36.463,-61.987c-0,-15.801 40.429,-16.954 36.463,-32.817c-4.861,-19.448 -31.849,-72.968 -65.634,-83.866c-37.679,-12.155 -123.975,22.485 -160.439,10.939c-31.521,-9.982 -60.772,-60.773 -58.341,-80.22c2.431,-19.447 46.864,-28.755 72.927,-36.463c43.148,-12.763 145.853,-31.602 185.963,-40.11c18.188,-3.858 46.795,-2.431 54.695,-10.939c7.901,-8.508 -4.31,-26.852 -7.293,-40.11c-5.469,-24.309 -18.839,-78.599 -25.524,-105.744" style="fill:url(#_Linear5);"/><path d="M5635.51,9262.34c-42.442,1.442 31.082,80.288 56.974,113.948c47.478,61.722 186.352,161.427 227.896,256.383c41.544,94.957 34.422,238.579 21.365,313.358c-9.636,55.192 -79.526,83.087 -99.704,135.313c-20.179,52.227 -29.494,118.826 -21.366,178.045c8.309,60.535 71.218,134.126 71.218,185.165c0,46.821 -91.396,85.462 -71.218,121.07c20.179,35.609 121.15,92.583 192.288,92.583c85.461,0 238.579,-72.404 320.479,-92.583c56.083,-13.817 137.688,1.187 170.923,-28.487c33.234,-29.674 54.304,-105.866 28.487,-149.557c-30.861,-52.226 -235.019,-115.135 -213.653,-163.8c21.365,-48.666 221.481,-110.227 341.844,-128.192c159.053,-23.739 521.076,10.683 612.472,-14.244c48.15,-13.131 -43.918,-113.948 -64.096,-135.313c-13.141,-13.914 -38.695,1.449 -56.974,7.122c-34.422,10.682 -96.991,47.876 -149.557,56.974c-61.722,10.683 -175.67,16.617 -220.775,7.122c-26.486,-5.576 -69.971,-45.989 -49.852,-64.096c47.478,-42.731 246.888,-143.622 334.723,-192.288c63.154,-34.991 124.631,-74.778 192.287,-99.705c67.657,-24.926 233.832,-16.617 213.653,-49.852c-20.178,-33.235 -282.496,-102.078 -334.723,-149.557c-33.788,-30.716 66.632,-129.306 21.366,-135.313c-250.449,-33.235 -1279.54,-72.405 -1524.06,-64.096Z" style="fill:url(#_Linear6);"/></g><g id="Stars"><path d="M3202.91,6032.7l11.847,57.354l57.354,11.847l-57.354,11.848l-11.847,57.353l-11.847,-57.353l-57.354,-11.848l57.354,-11.847l11.847,-57.354Z" style="fill:#fff;"/><path d="M5039.72,3092.22l8.444,40.881l40.881,8.444l-40.881,8.444l-8.444,40.881l-8.444,-40.881l-40.881,-8.444l40.881,-8.444l8.444,-40.881Z" style="fill:#fff;"/><path d="M4672.92,7962.22l9.107,44.091l44.091,9.107l-44.091,9.108l-9.107,44.09l-9.108,-44.09l-44.09,-9.108l44.09,-9.107l9.108,-44.091Z" style="fill:#fff;"/><path d="M6186.36,7335.81l12.239,59.248l59.248,12.239l-59.248,12.239l-12.239,59.248l-12.239,-59.248l-59.248,-12.239l59.248,-12.239l12.239,-59.248Z" style="fill:#fff;"/><path d="M6708.72,8605.47l6.961,33.698l33.698,6.961l-33.698,6.961l-6.961,33.698l-6.961,-33.698l-33.698,-6.961l33.698,-6.961l6.961,-33.698Z" style="fill:#fff;"/><path d="M2178.52,8092.22l12.239,59.248l59.249,12.239l-59.249,12.239l-12.239,59.248l-12.238,-59.248l-59.249,-12.239l59.249,-12.239l12.238,-59.248Z" style="fill:#fff;"/><path d="M4264.12,8672.69l6.844,33.131l33.13,6.843l-33.13,6.844l-6.844,33.13l-6.843,-33.13l-33.131,-6.844l33.131,-6.843l6.843,-33.131Z" style="fill:#fff;"/><path d="M4357.79,6966.69l6.843,33.13l33.131,6.844l-33.131,6.843l-6.843,33.131l-6.844,-33.131l-33.13,-6.843l33.13,-6.844l6.844,-33.13Z" style="fill:#fff;"/><path d="M5129.46,4539.04l6.843,33.13l33.131,6.844l-33.131,6.844l-6.843,33.13l-6.844,-33.13l-33.13,-6.844l33.13,-6.844l6.844,-33.13Z" style="fill:#fff;"/><path d="M7263.42,6224.16l8.765,42.433l42.433,8.765l-42.433,8.765l-8.765,42.434l-8.765,-42.434l-42.434,-8.765l42.434,-8.765l8.765,-42.433Z" style="fill:#fff;"/><path d="M8387.6,8321.28l7.095,34.877l34.347,7.205l-34.347,7.204l-7.095,34.877l-7.095,-34.877l-34.347,-7.204l34.347,-7.205l7.095,-34.877Z" style="fill:#fff;"/></g></g><path d="M-0,9560.49l4990.23,-9427.04c43.822,-82.055 130.319,-133.451 224.593,-133.451c94.274,0 180.771,51.396 224.593,133.451l4990.21,9427.04c-1616.77,613.42 -3379.52,869.135 -5214.81,869.135c-1835.29,0 -3598.05,-255.715 -5214.82,-869.135Z" style="fill:none;"/><clipPath id="_clip7"><path d="M-0,9560.49l4990.23,-9427.04c43.822,-82.055 130.319,-133.451 224.593,-133.451c94.274,0 180.771,51.396 224.593,133.451l4990.21,9427.04c-1616.77,613.42 -3379.52,869.135 -5214.81,869.135c-1835.29,0 -3598.05,-255.715 -5214.82,-869.135Z"/></clipPath><g clip-path="url(#_clip7)"><g><path d="M5406.7,2009.62c4.434,409.175 27.812,822.439 70.903,1238.33c729.129,7037.15 6828.1,12179.8 13611.2,11477c6783.1,-702.806 11698.1,-6986.66 10969,-14023.8c-43.092,-415.895 -104.939,-825.173 -184.489,-1226.56l-2736.31,280.451c16.303,119.228 108.034,233.837 120.491,354.058c619.716,5981.16 -3810.45,11345.2 -9791.61,11964.9c-5981.16,619.717 -11340.2,-3733.09 -11959.9,-9714.25c-12.457,-120.222 -22.904,-240.192 -31.391,-360.229l-67.871,10.093Z" style="fill:#ffbc1f;"/><path d="M5407.42,1575.89l-62.348,243.961l-251.287,16.092l212.754,134.685l-62.347,243.961l193.837,-160.722l212.754,134.684l-92.956,-234.016l193.837,-160.721l-251.288,16.092l-92.956,-234.016Z" style="fill:#ffbc1f;"/></g><g><path d="M5235.42,8025.36c-69.41,-152.1 -225.626,-602.456 -380.468,-887.051c-186.449,-342.685 -619.918,-869.959 -738.222,-1169.06c-77.736,-196.534 -45.429,-446.944 28.393,-625.551c73.822,-178.606 261.217,-341.831 414.54,-446.089c144.605,-98.33 327.468,-151.26 505.398,-179.461c177.931,-28.201 384.114,-42.564 562.185,10.255c195.913,58.111 463.755,197.407 613.292,338.412c145.198,136.914 244.181,340.977 283.932,507.619c38.394,160.957 8.518,340.976 -45.429,492.237c-53.947,151.26 -188.215,275.43 -278.253,415.324c-105.055,163.224 -253.646,399.942 -352.076,564.021c-83.059,138.458 -176.984,282.865 -238.502,420.452c-58.306,130.403 -100.323,310.211 -130.609,405.07c-17.43,54.591 -26.086,133.511 -51.107,164.078c-20.073,24.522 -72.843,16.779 -99.023,19.328c-19.297,1.879 -42.381,0.898 -58.056,-4.032c-14.412,-4.534 -30.18,-12.809 -35.995,-25.551Z" style="fill:#e1e2ef;stroke:#262626;stroke-width:26.03px;"/><g><path d="M5277.84,8009.75c-113.606,-325.241 -340.819,-975.722 -470.039,-1282c-81.52,-193.219 -206.088,-369.323 -305.283,-555.681c-100.146,-188.143 -252.788,-414.937 -295.592,-573.181c-33.101,-122.374 17.556,-290.071 38.766,-376.288c12.975,-52.741 63.322,-111.59 88.495,-141.015" style="fill:none;stroke:#262626;stroke-width:20.59px;"/><path d="M5362.65,8046.23c42.965,-190.161 128.896,-570.483 240.66,-842.323c112.06,-272.56 319.64,-581.338 431.7,-793.039c83.468,-157.687 180.027,-311.191 240.66,-477.167c65.333,-178.845 132.321,-484.262 151.343,-595.899c4.558,-26.754 -23.291,-58.203 -37.216,-73.928" style="fill:none;stroke:#262626;stroke-width:20.59px;"/><path d="M5323.43,8049.82c-28.643,-469.436 -85.931,-1408.31 -124.051,-1834.18c-21.628,-241.625 -84.64,-525.635 -104.669,-721.071c-15.367,-149.947 -21.321,-320.866 -15.506,-451.545c4.974,-111.787 35.255,-258.951 50.396,-332.533" style="fill:none;stroke:#262626;stroke-width:20.59px;"/><path d="M5280.79,8035.82c-41.351,-278.861 -124.052,-836.583 -232.597,-1176.12c-96.282,-301.175 -311.421,-613.728 -418.674,-861.085c-88.194,-203.402 -201.584,-453.879 -224.844,-623.062c-18.169,-132.163 48.458,-305.697 85.286,-392.039c23.318,-54.669 90.77,-92.797 135.681,-126.013c40.351,-29.843 102.64,-58.802 133.785,-73.281" style="fill:none;stroke:#262626;stroke-width:20.59px;"/><path d="M5335.06,8035.82c15.291,-205.938 45.873,-617.812 108.545,-913.591c62.04,-292.795 193.185,-620.145 267.487,-861.085c60.042,-194.703 140.85,-418.875 178.324,-584.558c30.41,-134.455 42.642,-287.612 46.519,-409.541c3.419,-107.528 -11.94,-251.379 -23.26,-322.032c-5.791,-36.148 -34.128,-79.725 -44.658,-101.883c-5.136,-10.808 -14.062,-24.312 -18.525,-31.065" style="fill:none;stroke:#262626;stroke-width:20.59px;"/></g><path d="M5321.3,8046.98c7.572,95.873 22.718,287.619 29.001,384.947c4.28,66.279 8.701,132.628 8.701,199.019c-0,88.599 -5.8,251.248 -8.701,332.573" style="fill:none;stroke:#262626;stroke-width:13.33px;"/><rect x="5242.39" y="8895.25" width="229.763" height="149.412" style="fill:url(#_Linear8);"/><path d="M5341.22,8280.42c34.614,-1.879 102.807,130.829 106.699,198.541c3.893,67.712 -48.732,205.852 -83.346,207.73c-34.613,1.878 -117.416,-108.04 -124.336,-196.46c-6.603,-84.37 66.37,-207.933 100.983,-209.811Z" style="fill:#ec4e20;"/></g><g><path d="M4956.93,1382.87c21.725,408.621 24.806,822.535 8.382,1240.33c-277.91,7069.36 -6035.76,12591.3 -12849.9,12323.4c-6814.15,-267.877 -12120.7,-6224.78 -11842.8,-13294.1c16.424,-417.799 51.989,-830.193 105.724,-1235.85l2748.64,105.007c-8.651,120.026 -92.87,240.263 -97.617,361.035c-236.207,6008.53 4527.71,11078.5 10536.2,11314.7c6008.54,236.206 11078.5,-4450.19 11314.7,-10458.7c4.748,-120.771 7.507,-241.164 8.305,-361.498l68.377,5.735Z" style="fill:#ffbc1f;"/><path d="M4928.49,950.071l77.811,239.478l251.802,0l-203.712,148.006l77.811,239.478l-203.712,-148.006l-203.712,148.006l77.811,-239.478l-203.712,-148.006l251.802,0l77.811,-239.478Z" style="fill:#ffbc1f;"/></g></g><g><g transform="matrix(0.469472,-0.882948,0.882948,0.469472,-76955.5,3524.59)"><text x="32205.5px" y="71449.9px" style="font-family:'Georgia-Bold', 'Georgia', serif;font-weight:700;font-size:666.183px;fill:#e1e2ef;">T<tspan x="32720.5px 33388px 33927.8px 34533.2px 34761.7px 35147.2px 35375.7px 35687.4px 35915.8px 36656.9px 36951.7px 37352.5px 37753.4px 38048.2px 38531px " y="71449.9px 71449.9px 71449.9px 71449.9px 71449.9px 71449.9px 71449.9px 71449.9px 71449.9px 71449.9px 71449.9px 71449.9px 71449.9px 71449.9px 71449.9px ">HEO 1 - Mission</tspan></text></g><g transform="matrix(0.469472,0.882948,-0.882948,0.469472,-60886.2,-13011.7)"><text x="45264.6px" y="-51761.1px" style="font-family:'Georgia-Bold', 'Georgia', serif;font-weight:700;font-size:620.147px;fill:#e1e2ef;">THG SPACE AGENCY</text></g></g><g transform="matrix(4.16578,0.0861578,-0.0861578,4.16578,-32449.5,-823.163)"><g transform="matrix(0.99908,0.0428817,-0.0428817,0.99908,115.285,-381.398)"><text x="8947.74px" y="2496.51px" style="font-family:'Arial-BoldMT', 'Arial', sans-serif;font-weight:700;font-size:64px;fill:#e1e2ef;">-</text></g><g transform="matrix(0.99994,0.0109904,-0.0109904,0.99994,28.0077,-98.9407)"><text x="9016.21px" y="2498.84px" style="font-family:'Georgia', serif;font-size:64px;fill:#e1e2ef;">2</text></g><g transform="matrix(0.999937,-0.0111925,0.0111925,0.999937,-27.405,101.636)"><text x="9066.7px" y="2499.25px" style="font-family:'Georgia', serif;font-size:64px;fill:#e1e2ef;">0</text></g><g transform="matrix(0.999434,-0.0336439,0.0336439,0.999434,-78.8947,308.269)"><text x="9120.68px" y="2498.47px" style="font-family:'Georgia', serif;font-size:64px;fill:#e1e2ef;">2</text></g><g transform="matrix(0.998544,-0.0539346,0.0539346,0.998544,-121.304,498.275)"><text x="9171.12px" y="2496.59px" style="font-family:'Georgia', serif;font-size:64px;fill:#e1e2ef;">1</text></g><g transform="matrix(0.997474,-0.0710385,0.0710385,0.997474,-153.906,660.797)"><text x="9213.26px" y="2494.18px" style="font-family:'Georgia', serif;font-size:64px;fill:#e1e2ef;">-</text></g></g></g><defs><linearGradient id="_Linear2" x1="0" y1="0" x2="1" y2="0" gradientUnits="userSpaceOnUse" gradientTransform="matrix(-33.929,-718.582,718.582,-33.929,5226.94,9423.96)"><stop offset="0" style="stop-color:#e1e2ef;stop-opacity:1"/><stop offset="1" style="stop-color:#e1e2ef;stop-opacity:0"/></linearGradient><linearGradient id="_Linear3" x1="0" y1="0" x2="1" y2="0" gradientUnits="userSpaceOnUse" gradientTransform="matrix(26.791,1875.37,-1875.37,26.791,4965.75,8446.61)"><stop offset="0" style="stop-color:#0129b9;stop-opacity:1"/><stop offset="1" style="stop-color:#016fb9;stop-opacity:1"/></linearGradient><linearGradient id="_Linear5" x1="0" y1="0" x2="1" y2="0" gradientUnits="userSpaceOnUse" gradientTransform="matrix(480.012,917.323,-632.654,331.051,4115.79,9088.54)"><stop offset="0" style="stop-color:#4dc731;stop-opacity:1"/><stop offset="1" style="stop-color:#4d8b31;stop-opacity:1"/></linearGradient><linearGradient id="_Linear6" x1="0" y1="0" x2="1" y2="0" gradientUnits="userSpaceOnUse" gradientTransform="matrix(-51.2098,874.457,-659.61,-38.628,6402.74,9419.6)"><stop offset="0" style="stop-color:#4db331;stop-opacity:1"/><stop offset="1" style="stop-color:#4d8b31;stop-opacity:1"/></linearGradient><linearGradient id="_Linear8" x1="0" y1="0" x2="1" y2="0" gradientUnits="userSpaceOnUse" gradientTransform="matrix(229.763,-1.53582e-15,-2.07593e-15,149.412,5242.38,8969.96)"><stop offset="0" style="stop-color:#e1e2ef;stop-opacity:1"/><stop offset="1" style="stop-color:#fff;stop-opacity:1"/></linearGradient></defs></svg>